G04 EAGLE Gerber RS-274X export*
G75*
%MOMM*%
%FSLAX34Y34*%
%LPD*%
%INTop Copper*%
%IPPOS*%
%AMOC8*
5,1,8,0,0,1.08239X$1,22.5*%
G01*
G04 Define Apertures*
%ADD10C,1.524000*%
%ADD11C,1.473200*%
%ADD12C,1.508000*%
%ADD13C,1.524000*%
%ADD14C,4.318000*%
%ADD15P,1.64956X8X22.5*%
%ADD16R,2.203600X2.368000*%
%ADD17R,0.970200X0.920900*%
%ADD18R,1.860300X0.897900*%
%ADD19R,1.860300X3.189100*%
%ADD20R,1.188700X1.795500*%
%ADD21C,1.270000*%
%ADD22C,0.609600*%
%ADD23C,0.812800*%
%ADD24C,1.056400*%
%ADD25C,1.016000*%
%ADD26C,0.406400*%
%ADD27C,0.254000*%
D10*
X1047750Y723900D03*
X1047750Y749300D03*
X1047750Y774700D03*
X1047750Y800100D03*
X1047750Y825500D03*
X1047750Y850900D03*
X1047750Y876300D03*
X1047750Y901700D03*
X920750Y901700D03*
X920750Y876300D03*
X920750Y850900D03*
X920750Y825500D03*
X920750Y800100D03*
X920750Y774700D03*
X920750Y749300D03*
X920750Y723900D03*
D11*
X1181100Y982474D03*
X1181100Y957074D03*
X1181100Y931674D03*
X1181100Y906274D03*
X1181100Y880874D03*
X1181100Y855474D03*
X1181100Y830074D03*
X1181100Y804674D03*
X1181100Y779274D03*
X1181100Y753874D03*
X1181100Y728474D03*
X1181100Y703074D03*
X1181100Y677674D03*
X1181100Y652274D03*
X1206500Y652274D03*
X1231900Y652274D03*
X1257300Y652274D03*
X1282700Y652274D03*
X1308100Y652274D03*
X1333500Y652274D03*
X1333500Y677674D03*
X1333500Y703074D03*
X1333500Y728474D03*
X1333500Y753874D03*
X1333500Y779274D03*
X1333500Y804674D03*
X1333500Y830074D03*
X1333500Y855474D03*
X1333500Y880874D03*
X1333500Y906274D03*
X1333500Y931674D03*
X1333500Y957074D03*
X1333500Y982474D03*
D12*
X448535Y815961D02*
X433455Y815961D01*
X619280Y815954D02*
X634360Y815954D01*
X448490Y789932D02*
X433410Y789932D01*
X619310Y790132D02*
X634390Y790132D01*
X448490Y708568D02*
X433410Y708568D01*
X619410Y708568D02*
X634490Y708568D01*
X448536Y683776D02*
X433456Y683776D01*
X619484Y684073D02*
X634564Y684073D01*
D13*
X698500Y703580D02*
X698500Y718820D01*
X673100Y718820D02*
X673100Y703580D01*
D14*
X558800Y891700D03*
X558800Y951700D03*
X511800Y921700D03*
D13*
X673100Y932180D02*
X673100Y947420D01*
X698500Y947420D02*
X698500Y932180D01*
X723900Y932180D02*
X723900Y947420D01*
X647700Y947420D02*
X647700Y932180D01*
X1414780Y692150D02*
X1430020Y692150D01*
X1430020Y717550D02*
X1414780Y717550D01*
X1414780Y742950D02*
X1430020Y742950D01*
X812800Y932180D02*
X812800Y947420D01*
X838200Y947420D02*
X838200Y932180D01*
D15*
X444500Y889000D03*
D13*
X1414780Y844550D02*
X1430020Y844550D01*
X1430020Y869950D02*
X1414780Y869950D01*
X1414780Y895350D02*
X1430020Y895350D01*
D16*
X698500Y753314D03*
X698500Y802738D03*
D17*
X739877Y716154D03*
X739877Y731646D03*
D18*
X807450Y816750D03*
X807450Y793750D03*
X807450Y770750D03*
D19*
X868950Y793750D03*
D20*
X764185Y710801D03*
X764185Y736999D03*
X764185Y761601D03*
X764185Y787799D03*
D13*
X704850Y636270D02*
X704850Y621030D01*
X730250Y621030D02*
X730250Y636270D01*
X1066800Y640080D02*
X1066800Y655320D01*
X1092200Y655320D02*
X1092200Y640080D01*
X1117600Y640080D02*
X1117600Y655320D01*
X1066800Y617982D02*
X1066800Y602742D01*
X1092200Y602742D02*
X1092200Y617982D01*
X1117600Y617982D02*
X1117600Y602742D01*
D21*
X650432Y790132D02*
X626850Y790132D01*
X650432Y790132D02*
X663038Y802738D01*
X698500Y802738D01*
X812800Y914400D02*
X812800Y939800D01*
X812800Y914400D02*
X825500Y901700D01*
X920750Y901700D01*
D22*
X1066800Y610362D02*
X1066800Y603250D01*
X1084580Y585470D01*
X1220470Y585470D01*
X1257300Y622300D01*
X1257300Y652274D01*
X1257300Y622300D02*
X1270000Y609600D01*
X1352550Y609600D01*
X1422400Y679450D01*
X1422400Y692150D01*
D23*
X730250Y802738D02*
X698500Y802738D01*
X730250Y802738D02*
X762000Y802738D01*
X770988Y802738D01*
X785000Y816750D01*
X807450Y816750D01*
X764185Y736999D02*
X758832Y731646D01*
X739877Y731646D01*
X730250Y741273D01*
X730250Y802738D01*
X762000Y789984D02*
X764185Y787799D01*
X762000Y789984D02*
X762000Y802738D01*
D24*
X625747Y860697D03*
D25*
X660400Y895350D01*
X704850Y895350D01*
X723900Y914400D01*
X723900Y939800D01*
D26*
X1047750Y876300D02*
X1060450Y876300D01*
X1098550Y838200D01*
X1098550Y774700D01*
X1170176Y703074D01*
X1181100Y703074D01*
X1181100Y728474D02*
X1117600Y791974D01*
X1117600Y844550D01*
X1060450Y901700D01*
X1047750Y901700D01*
D27*
X1346200Y768350D02*
X1397000Y717550D01*
X1346200Y768350D02*
X1219200Y768350D01*
X1208276Y779274D01*
X1181100Y779274D01*
X1397000Y717550D02*
X1422400Y717550D01*
X1422400Y895350D02*
X1386076Y931674D01*
X1333500Y931674D01*
X1422400Y774700D02*
X1422400Y742950D01*
X1422400Y774700D02*
X1454150Y806450D01*
X1454150Y889000D01*
X1447800Y895350D01*
X1422400Y895350D01*
D23*
X764584Y762000D02*
X764185Y761601D01*
X764584Y762000D02*
X774700Y762000D01*
X787400Y774700D01*
X787400Y787400D01*
X793750Y793750D01*
X838200Y736600D02*
X730250Y628650D01*
X838200Y736600D02*
X838200Y774700D01*
X819150Y793750D01*
X807450Y793750D02*
X793750Y793750D01*
X807450Y793750D02*
X819150Y793750D01*
X901700Y876300D01*
X920750Y876300D01*
D21*
X627024Y684073D02*
X626950Y684147D01*
X626950Y708568D01*
X629582Y711200D01*
X673100Y711200D01*
X558800Y891700D02*
X482600Y815500D01*
X482600Y736600D01*
X454568Y708568D01*
X440950Y708568D01*
X440950Y683822D01*
X440996Y683776D01*
X558800Y891700D02*
X596900Y929800D01*
X596900Y965200D01*
X615190Y983490D01*
X812800Y983490D01*
X838200Y958090D01*
X838200Y939800D01*
X927100Y939800D01*
X920750Y723900D02*
X939800Y723900D01*
X957072Y909828D02*
X927100Y939800D01*
X957072Y909828D02*
X957072Y741172D01*
X939800Y723900D01*
X698500Y711200D02*
X698500Y753314D01*
D23*
X698500Y711200D02*
X698500Y635000D01*
X704850Y628650D01*
X698500Y711200D02*
X703454Y716154D01*
X739877Y716154D01*
X758832Y716154D01*
X764185Y710801D01*
X764584Y711200D01*
X774700Y711200D01*
X807450Y743950D01*
X807450Y770750D01*
D27*
X1181100Y804674D02*
X1211074Y804674D01*
X1276350Y869950D01*
X1422400Y869950D01*
X1060450Y749300D02*
X1047750Y749300D01*
X1060450Y749300D02*
X1092200Y717550D01*
X1092200Y647700D01*
X1104900Y717550D02*
X1047750Y774700D01*
X1104900Y717550D02*
X1104900Y622300D01*
X1092962Y610362D01*
X1092200Y610362D01*
M02*
