G04 EAGLE Gerber RS-274X export*
G75*
%MOMM*%
%FSLAX34Y34*%
%LPD*%
%INBottom Copper*%
%IPPOS*%
%AMOC8*
5,1,8,0,0,1.08239X$1,22.5*%
G01*
G04 Define Apertures*
%ADD10C,1.524000*%
%ADD11C,1.473200*%
%ADD12C,1.508000*%
%ADD13C,1.524000*%
%ADD14C,4.318000*%
%ADD15P,1.64956X8X22.5*%
%ADD16C,1.270000*%
%ADD17C,0.609600*%
%ADD18C,1.056400*%
%ADD19C,1.016000*%
%ADD20C,0.254000*%
D10*
X1047750Y723900D03*
X1047750Y749300D03*
X1047750Y774700D03*
X1047750Y800100D03*
X1047750Y825500D03*
X1047750Y850900D03*
X1047750Y876300D03*
X1047750Y901700D03*
X920750Y901700D03*
X920750Y876300D03*
X920750Y850900D03*
X920750Y825500D03*
X920750Y800100D03*
X920750Y774700D03*
X920750Y749300D03*
X920750Y723900D03*
D11*
X1181100Y982474D03*
X1181100Y957074D03*
X1181100Y931674D03*
X1181100Y906274D03*
X1181100Y880874D03*
X1181100Y855474D03*
X1181100Y830074D03*
X1181100Y804674D03*
X1181100Y779274D03*
X1181100Y753874D03*
X1181100Y728474D03*
X1181100Y703074D03*
X1181100Y677674D03*
X1181100Y652274D03*
X1206500Y652274D03*
X1231900Y652274D03*
X1257300Y652274D03*
X1282700Y652274D03*
X1308100Y652274D03*
X1333500Y652274D03*
X1333500Y677674D03*
X1333500Y703074D03*
X1333500Y728474D03*
X1333500Y753874D03*
X1333500Y779274D03*
X1333500Y804674D03*
X1333500Y830074D03*
X1333500Y855474D03*
X1333500Y880874D03*
X1333500Y906274D03*
X1333500Y931674D03*
X1333500Y957074D03*
X1333500Y982474D03*
D12*
X448535Y815961D02*
X433455Y815961D01*
X619280Y815954D02*
X634360Y815954D01*
X448490Y789932D02*
X433410Y789932D01*
X619310Y790132D02*
X634390Y790132D01*
X448490Y708568D02*
X433410Y708568D01*
X619410Y708568D02*
X634490Y708568D01*
X448536Y683776D02*
X433456Y683776D01*
X619484Y684073D02*
X634564Y684073D01*
D13*
X698500Y703580D02*
X698500Y718820D01*
X673100Y718820D02*
X673100Y703580D01*
D14*
X558800Y891700D03*
X558800Y951700D03*
X511800Y921700D03*
D13*
X673100Y932180D02*
X673100Y947420D01*
X698500Y947420D02*
X698500Y932180D01*
X723900Y932180D02*
X723900Y947420D01*
X647700Y947420D02*
X647700Y932180D01*
X1414780Y692150D02*
X1430020Y692150D01*
X1430020Y717550D02*
X1414780Y717550D01*
X1414780Y742950D02*
X1430020Y742950D01*
X812800Y932180D02*
X812800Y947420D01*
X838200Y947420D02*
X838200Y932180D01*
D15*
X444500Y889000D03*
D13*
X1414780Y844550D02*
X1430020Y844550D01*
X1430020Y869950D02*
X1414780Y869950D01*
X1414780Y895350D02*
X1430020Y895350D01*
X704850Y636270D02*
X704850Y621030D01*
X730250Y621030D02*
X730250Y636270D01*
X1066800Y640080D02*
X1066800Y655320D01*
X1092200Y655320D02*
X1092200Y640080D01*
X1117600Y640080D02*
X1117600Y655320D01*
X1066800Y617982D02*
X1066800Y602742D01*
X1092200Y602742D02*
X1092200Y617982D01*
X1117600Y617982D02*
X1117600Y602742D01*
D16*
X558800Y951700D02*
X541800Y951700D01*
X511800Y921700D01*
X479100Y889000D01*
X444500Y889000D01*
X444500Y819466D01*
X440995Y815961D01*
X440995Y789977D01*
X440950Y789932D01*
X440995Y815961D02*
X626813Y815961D01*
X626820Y815954D01*
X626820Y790162D01*
X626850Y790132D01*
X812800Y939800D02*
X774700Y977900D01*
X585000Y977900D01*
X558800Y951700D01*
X920750Y901700D02*
X939800Y901700D01*
X952500Y889000D01*
X952500Y762000D01*
X939800Y749300D01*
X920750Y749300D01*
X920750Y901700D02*
X1001524Y982474D01*
X1181100Y982474D01*
D17*
X984250Y749300D02*
X920750Y749300D01*
X984250Y749300D02*
X1066800Y666750D01*
X1066800Y647700D01*
X1066800Y610362D01*
X1435100Y692150D02*
X1454150Y711200D01*
X1435100Y692150D02*
X1422400Y692150D01*
X1454150Y711200D02*
X1454150Y787400D01*
X1422400Y819150D01*
X1422400Y844550D01*
D18*
X625747Y860697D03*
D19*
X711200Y774700D02*
X920750Y774700D01*
X711200Y774700D02*
X625747Y860153D01*
X625747Y860697D01*
X755650Y850900D02*
X920750Y850900D01*
X755650Y850900D02*
X698500Y908050D01*
X698500Y939800D01*
X736600Y825500D02*
X920750Y825500D01*
X736600Y825500D02*
X673100Y889000D01*
X673100Y939800D01*
X717550Y800100D02*
X920750Y800100D01*
X717550Y800100D02*
X647700Y869950D01*
X647700Y939800D01*
D20*
X1047750Y723900D02*
X1077724Y753874D01*
X1181100Y753874D01*
D17*
X984250Y628650D02*
X730250Y628650D01*
X984250Y628650D02*
X1027430Y585470D01*
X1104900Y585470D01*
X1117600Y598170D01*
X1117600Y610362D01*
X1117600Y647700D01*
X1117600Y610362D02*
X1213612Y610362D01*
X1231900Y628650D01*
X1231900Y652274D01*
X1231900Y628650D02*
X1250950Y609600D01*
X1346200Y609600D01*
X1377950Y641350D01*
X1377950Y717550D01*
X1403350Y742950D01*
X1422400Y742950D01*
M02*
