M48
;GenerationSoftware,Autodesk,EAGLE,9.7.0*%
;CreationDate,2023-08-18T06:40:39Z*%
FMAT,2
ICI,OFF
METRIC,TZ,000.000
T7C0.650
T6C0.965
T5C1.000
T4C1.016
T3C2.997
T2C3.500
T1C6.500
%
G90
M71
T1
X110590Y93330
X85590Y68330
T2
X44640Y61150
X44640Y96330
X144590Y96330
X144590Y61150
T3
X55880Y89170
X55880Y95170
X51180Y92170
T4
X104775Y77470
X104775Y80010
X104775Y82550
X104775Y85090
X104775Y87630
X104775Y90170
X92075Y90170
X92075Y87630
X92075Y85090
X92075Y82550
X92075Y80010
X92075Y77470
X92075Y74930
X92075Y72390
X109220Y61036
X106680Y61036
X111760Y64770
X109220Y64770
X106680Y64770
X73025Y62865
X70485Y62865
X142240Y89535
X142240Y86995
X142240Y84455
X44450Y88900
X83820Y93980
X81280Y93980
X142240Y74295
X142240Y71755
X142240Y69215
X64770Y93980
X72390Y93980
X69850Y93980
X67310Y93980
X104775Y74930
X104775Y72390
X111760Y61036
X67310Y71120
X69850Y71120
T5
X62702Y68407
X44100Y68378
X62695Y70857
X44095Y70857
X62685Y79013
X44095Y78993
X62682Y81595
X44099Y81596
T6
X133350Y98247
X133350Y95707
X133350Y93167
X133350Y90627
X133350Y88087
X133350Y85547
X133350Y83007
X133350Y80467
X133350Y77927
X133350Y75387
X133350Y72847
X133350Y70307
X133350Y67767
X133350Y65227
X130810Y65227
X128270Y65227
X125730Y65227
X123190Y65227
X120650Y65227
X118110Y65227
X118110Y67767
X118110Y70307
X118110Y72847
X118110Y75387
X118110Y77927
X118110Y80467
X118110Y83007
X118110Y85547
X118110Y88087
X118110Y90627
X118110Y93167
X118110Y95707
X118110Y98247
T7
X62575Y86070
M30